# xmcd
#
# Track frame offsets: 
#        150
#        12124
#        26751
#        39108
#        50677
#        64240
#        78289
#        91247
#        102156
#        114114
#        127483
#        140092
#        152596
#        165613
#        176363
#        189942
#        202858
#        216146
#        227756
#        240691
#
# Disc length: 3387 seconds
#
# Revision: 0
# Processed by: cddbd v1.5.2PL0 Copyright (c) Steve Scherf et al.
# Submitted via: ExactAudioCopy v1.0b3
#
DISCID=020d3914
DTITLE=Gene Autry - Little Farm Home (1930-1939)
DYEAR=2003
DGENRE=Western
TTITLE0=Back Home In The Blue Ridge Mountains  (1932)
TTITLE1=Empty Cot In The Bonkhouse Tonight  (1933)
TTITLE2=The Old Grey Mare (& Frankie Marvin)  (1936)
TTITLE3=Pictures Of My Mother  (1930)
TTITLE4=Down A Moutain Trail (& Jimmy Long)  (1937)
TTITLE5=Tru Blue Bill  (1931)
TTITLE6=Blue Days  (1931)
TTITLE7=I Wonder If You Feel The Way I Do  (1939)
TTITLE8=Little Sir Echo  (1939)
TTITLE9=Roundup In Cheyenne  (1934)
TTITLE10=Little Farm Home (& Jimmy Long)  (1934)
TTITLE11=With A Song In My Heart and Jimmy Long and Frankie Marvin)  (1937
TTITLE11=)
TTITLE12=Convict's Dream  (1937)
TTITLE13=Eyes To The Skies  (1937)
TTITLE14=Under The Apple Tree  (1932)
TTITLE15=That's Why I'm Nobody's Darling  (1937)
TTITLE16=When The Humming Birds Are Humming  (1933)
TTITLE17=She's Just That Kind  (1931)
TTITLE18=That Mother And Daddy Of Mine  (1933)
TTITLE19=Ther's A Good Gal In The Moutains  (1931)
EXTD=
EXTT0=
EXTT1=
EXTT2=
EXTT3=
EXTT4=
EXTT5=
EXTT6=
EXTT7=
EXTT8=
EXTT9=
EXTT10=
EXTT11=
EXTT12=
EXTT13=
EXTT14=
EXTT15=
EXTT16=
EXTT17=
EXTT18=
EXTT19=
PLAYORDER=
